<svg xmlns="http://www.w3.org/2000/svg" id="Livello_2" data-name="Livello 2" viewBox="0 0 1036.69 276.13"><defs><style>      .cls-1 {        fill: #fff;        stroke-width: 0px;      }    </style></defs><g id="logo"><polygon class="cls-1" points="279.57 43.18 245.15 43.18 245.15 113.18 279.57 113.18 296.78 113.18 296.78 43.18 279.57 43.18"></polygon><polygon class="cls-1" points="245.15 43.18 245.15 1.19 0 1.19 0 43.18 0 43.18 0 108.31 26.72 148.18 69.96 148.18 69.96 197.17 121.81 274.54 210 274.54 210 148.18 245 148.18 245 113.18 210.15 113.18 175 113.18 175 239.54 135.93 239.54 105 193.11 105 113.18 101.34 113.18 69.96 113.18 35 113.18 35 43.18 245.15 43.18"></polygon><g><path class="cls-1" d="M351.95,223.33c5.7,4.5,8.55,10.8,8.55,19.05,0,6.6-1.65,12.3-5.1,17.1-3.45,4.8-8.55,8.4-15.3,10.95s-15,3.75-24.75,3.75h-47.4v-114h46.95c9.45,0,17.25,1.35,23.4,4.05,6.15,2.7,10.8,6.3,13.8,10.8,3,4.5,4.5,9.6,4.5,15.15,0,7.5-2.55,13.35-7.65,17.7-5.1,4.35-12,7.05-20.55,8.1,10.05.45,18,2.85,23.7,7.35h-.15ZM291.5,206.08h24.15c5.25,0,9.3-1.05,12.15-3.15s4.2-5.25,4.2-9.6-1.35-7.65-4.2-9.9-6.9-3.3-12.15-3.3h-24.15v25.95ZM316.7,254.98c6.3,0,11.1-1.2,14.4-3.75s4.95-6.15,4.95-10.8-1.65-8.25-4.95-10.8-8.1-3.75-14.4-3.75h-25.2v28.8h25.2v.3Z"></path><path class="cls-1" d="M447.1,231.43h-20.85v42.45h-23.7v-114h45.3c9.15,0,17.1,1.5,23.85,4.5s11.85,7.2,15.45,12.6c3.6,5.4,5.4,11.7,5.4,18.9s-1.8,13.8-5.55,19.35c-3.75,5.55-9.15,9.75-16.2,12.6l28.2,46.35h-27l-24.9-42.75ZM426.1,211.63h22.2c6.15,0,10.95-1.35,14.4-4.2,3.45-2.85,5.25-6.75,5.25-11.7s-1.65-8.85-5.1-11.7-8.25-4.35-14.4-4.35h-22.2l-.15,31.95Z"></path><path class="cls-1" d="M567.7,254.38v-74.4h-29.1v-19.8h81.9v19.8h-29.1v74.4h29.1v19.8h-81.9v-19.8h29.1Z"></path><path class="cls-1" d="M686.25,269.08c-8.4-4.8-15-11.7-19.8-20.55s-7.2-19.2-7.2-31.05,2.4-22.2,7.2-31.05,11.4-15.75,19.8-20.55c8.4-4.8,18-7.2,28.65-7.2,9,0,17.25,1.65,24.6,4.95s13.5,7.95,18.45,14.1c4.95,6.15,8.4,13.35,10.35,21.75h-24.75c-2.4-6.75-6-12.15-10.65-16.05-4.65-3.9-10.8-5.85-18.3-5.85-6.15,0-11.55,1.65-16.35,4.95s-8.4,7.95-10.95,13.95c-2.55,6-3.9,13.05-3.9,21s1.35,15,4.05,21c2.7,6,6.45,10.65,11.25,13.95s10.2,4.95,16.35,4.95c7.35,0,13.65-1.95,18.75-5.7,5.1-3.75,8.85-9.3,11.1-16.5h24.75c-3.6,13.65-10.2,23.85-19.8,30.6-9.6,6.75-21.15,10.2-34.8,10.2-10.5,0-19.95-2.4-28.35-7.2l-.45.3Z"></path><path class="cls-1" d="M910.94,274.18h-29.85l-46.8-56.55v56.55h-23.7v-114h23.7v51.3l42.6-51.3h28.95l-45.15,54.15,50.25,59.85Z"></path><path class="cls-1" d="M963.35,272.23c-6.9-3-12.45-7.2-16.65-12.75s-6.75-12.15-7.8-19.8h24.75c.75,5.85,3.3,10.35,7.65,13.5,4.35,3.15,9.75,4.65,16.2,4.65,5.25,0,9.75-.6,13.5-1.8s6.6-2.85,8.55-5.1c1.95-2.25,3-4.8,3-7.8s-.75-5.25-2.4-7.05c-1.65-1.8-4.05-3.3-7.2-4.5-3.15-1.2-7.5-2.4-13.2-3.75l-16.2-3.6c-10.05-2.1-17.85-5.7-23.4-10.95s-8.25-12.15-8.25-20.7c0-6.45,1.95-12.3,5.85-17.4,3.9-5.1,9.15-9.15,15.9-12,6.75-2.85,14.25-4.35,22.5-4.35,9.15,0,17.1,1.35,23.85,4.05,6.75,2.7,12,6.45,15.9,11.25,3.9,4.8,6.45,10.5,7.5,16.95h-24.75c-1.5-4.65-4.2-8.1-7.95-10.35-3.75-2.25-8.55-3.3-14.4-3.3-3.75,0-7.2.45-10.35,1.5-3.15,1.05-5.7,2.55-7.5,4.5s-2.7,4.2-2.7,6.75c0,2.7.75,4.8,2.25,6.45,1.5,1.65,3.75,3,6.75,4.2,3,1.2,7.35,2.4,13.05,3.75l16.2,3.6c10.95,2.4,19.2,6.15,24.6,11.25s8.1,12.15,8.1,21c0,7.35-2.1,13.8-6.15,19.2-4.05,5.4-9.75,9.45-17.25,12.3-7.5,2.85-16.2,4.2-26.1,4.2-8.55,0-16.35-1.5-23.25-4.5l-.6.6Z"></path></g><g><path class="cls-1" d="M425.18,1.16v13.26h-37.29v98.75h-14.89V14.43h-37.29V1.16h89.46Z"></path><path class="cls-1" d="M509.79,99.91h59.4v13.26h-74.28V1.16h72.95v13.26h-58.07v34.34h57.04v13.26h-57.04v37.88Z"></path><path class="cls-1" d="M662.28,108.03c-7.81-4.86-14-11.64-18.57-20.34-4.57-8.7-6.78-18.72-6.78-30.07s2.21-21.37,6.78-30.07c4.57-8.7,10.76-15.48,18.72-20.34,7.96-4.86,16.95-7.22,26.97-7.22,8.4,0,16.06,1.62,22.84,4.86,6.78,3.24,12.53,7.66,17.1,13.41,4.57,5.75,7.81,12.38,9.73,19.9h-15.47c-2.8-7.81-7.07-14-12.82-18.57-5.75-4.57-12.82-6.93-21.37-6.93-7.22,0-13.71,1.92-19.31,5.75-5.6,3.83-9.87,9.14-12.97,15.92-3.09,6.78-4.57,14.59-4.57,23.29s1.62,16.51,4.72,23.29c3.09,6.78,7.37,12.08,12.82,15.92,5.45,3.83,11.64,5.75,18.57,5.75,8.99,0,16.51-2.21,22.4-6.63,5.9-4.42,10.32-10.76,13.12-19.01h15.48c-3.68,12.53-9.87,21.96-18.57,28.44-8.7,6.48-19.45,9.73-32.28,9.73-9.87,0-18.72-2.36-26.53-7.22v.15Z"></path><path class="cls-1" d="M883.2,1.09h14.89v112.01h-14.89v-51.14h-58.66v51.14h-14.89V1.09h14.89v47.6h58.66V1.09Z"></path></g></g></svg>