<svg xmlns="http://www.w3.org/2000/svg" width="25" height="24" fill="none" viewBox="0 0 25 24"><g stroke="#121331" stroke-linecap="round" stroke-linejoin="round" stroke-width="1.5" clip-path="url(#IW3KuzL8I1a)"><path d="M4.25 19.25v-6.5h4a1 1 0 0 1 1 1v1.5a1 1 0 0 0 1 1h4.5a1 1 0 0 0 1-1v-1.5a1 1 0 0 1 1-1h4v6.5a1 1 0 0 1-1 1H5.25a1 1 0 0 1-1-1m0-6.5 2.518-7.325a1 1 0 0 1 .946-.675h9.572a1 1 0 0 1 .946.675l2.518 7.325"/></g><defs><clipPath id="IW3KuzL8I1a"><path fill="#fff" d="M.5 0h24v24H.5z"/></clipPath></defs></svg>