<svg width="120" height="40" viewBox="0 0 120 40" fill="none" xmlns="http://www.w3.org/2000/svg">
  <!-- P -->
  <path d="M8 8h8c4.4 0 8 3.6 8 8s-3.6 8-8 8h-4v8h-4V8z" fill="#0B0B0C"/>
  <path d="M12 12v8h4c2.2 0 4-1.8 4-4s-1.8-4-4-4h-4z" fill="#F6F7FA"/>
  
  <!-- V -->
  <path d="M28 8h4l4 16 4-16h4L38 32h-4L28 8z" fill="#0B0B0C"/>
  
  <!-- L -->
  <path d="M48 8h4v20h12v4H48V8z" fill="#0B0B0C"/>
  
  <!-- S -->
  <path d="M68 12c0-2.2 1.8-4 4-4h8c2.2 0 4 1.8 4 4v4h-4v-2h-8v4h8c2.2 0 4 1.8 4 4v6c0 2.2-1.8 4-4 4h-8c-2.2 0-4-1.8-4-4v-4h4v2h8v-4h-8c-2.2 0-4-1.8-4-4v-6z" fill="#0B0B0C"/>
  
  <!-- E -->
  <path d="M88 8h16v4h-12v6h8v4h-8v6h12v4H88V8z" fill="#0B0B0C"/>
  
  <!-- Accent dot -->
  <circle cx="110" cy="30" r="3" fill="#7C5CFF"/>
</svg>